<svg id="OBJECTS" xmlns="http://www.w3.org/2000/svg" xmlns:xlink="http://www.w3.org/1999/xlink" viewBox="0 0 527.58 249"><defs><style>.cls-1{font-size:95.26px;fill:#020428;font-family:Gotham-Medium, Gotham;font-weight:500;letter-spacing:0.07em;}.cls-2{font-size:139.21px;fill:#e58924;font-family:Montserrat-ExtraBoldItalic, Montserrat;font-weight:800;font-style:italic;letter-spacing:0.09em;}.cls-3{letter-spacing:0.09em;}.cls-4{letter-spacing:0.1em;}.cls-5{fill:url(#Degradado_sin_nombre_5);}</style><linearGradient id="Degradado_sin_nombre_5" x1="2.27" y1="195.92" x2="497.84" y2="195.92" gradientUnits="userSpaceOnUse"><stop offset="0" stop-color="#db242a"/><stop offset="1" stop-color="#e58924"/></linearGradient></defs><text class="cls-1" transform="translate(0 222.8) scale(1.11 1)">MARKET</text><text class="cls-2" transform="translate(7.59 118.33) scale(1.08 1)">F<tspan class="cls-3" x="101.9" y="0">r</tspan><tspan class="cls-4" x="176.52" y="0">esh</tspan></text><path class="cls-5" d="M48.56,170.79l-4.68,21.44H90.47l-4.67,21.3H39.36l-7.24,33.41H2.27l21.11-97.45H106l-4.67,21.3Z" transform="translate(7.73 -128.61)"/><path class="cls-5" d="M182.44,170.23l-5,23.81a54,54,0,0,0-6.48-.42c-12.52,0-20.51,5.15-23.22,17.68l-7.84,35.64H111.27l16.29-75.45H154.7l-1.81,8.35C160.12,173,170.23,170.23,182.44,170.23Z" transform="translate(7.73 -128.61)"/><path class="cls-5" d="M282.85,215.75h-60c1.06,8.36,7.24,12.25,18.55,12.25a33.26,33.26,0,0,0,19.75-6.12l11.91,16.57c-10.25,7-22.47,9.74-34.83,9.74-26.23,0-43.42-13.36-43.42-34.38,0-25.06,20-43.58,49.45-43.58,24.88,0,40.26,13.37,40.26,33.14A52.92,52.92,0,0,1,282.85,215.75ZM224.5,201.83h33.62c.15-8.07-6-12.8-15.23-12.8C233.25,189,227.21,194.32,224.5,201.83Z" transform="translate(7.73 -128.61)"/><path class="cls-5" d="M299.88,240.81l10.4-18.51c7.54,4.45,18.7,7,28.35,7,9.35,0,13.12-2.09,13.12-5.43,0-8.63-42.37-.7-42.37-26.17,0-18.1,18.84-27.43,43.57-27.43,11.61,0,23.07,2.23,31.06,6l-10.1,18.51c-8-4.45-17-5.7-24.28-5.7-9.34,0-13.11,2.64-13.11,5.7,0,9.05,42.21,1,42.21,26.18,0,18.09-19.15,27.28-43.42,27.28C320.84,248.19,307,245,299.88,240.81Z" transform="translate(7.73 -128.61)"/><path class="cls-5" d="M497.84,196.13a39.33,39.33,0,0,1-1.06,9.05l-9,41.76H459.09l8.44-39.26a20.11,20.11,0,0,0,.61-5c0-6.54-3.62-10-11.31-10-9.8,0-16.59,5.43-19.15,17l-8.14,37.31H400.89l22.32-103.29h28.64l-7.38,34.1a40.41,40.41,0,0,1,23.82-7.52C485.48,170.23,497.84,179,497.84,196.13Z" transform="translate(7.73 -128.61)"/></svg>